<?xml version="1.0" encoding="utf-8" ?>	<!-- Generator: Assembly 2.2 - http://assemblyapp.co -->	<svg version="1.1" xmlns="http://www.w3.org/2000/svg" xmlns:xlink="http://www.w3.org/1999/xlink" width="2048.00" height="2048.00" viewBox="0 0 2048.0 2048.0">		<g id="document" transform="matrix(1,0,0,1,1024.0,1024.0)">			<path d="M516.877,253.253 C516.877,141.821 474.909,40.5204 406.893,-36.179 C476.356,-112.878 516.877,-214.179 516.877,-325.61 C516.877,-565.839 322.958,-759.758 82.7294,-759.758 C82.7294,-759.758 304.762,-759.758 82.7294,-759.758 C-139.303,-759.758 -145.97,-470.326 82.7294,-470.326 C311.429,-470.326 82.7294,-470.326 82.7294,-470.326 C162.323,-470.326 227.445,-405.204 227.445,-325.61 C227.445,-246.017 162.323,-180.895 82.7294,-180.895 C82.7294,-180.895 62.604,-180.895 -140.181,-180.895 C-342.966,-180.895 -355.105,108.537 -140.181,108.537 C74.7431,108.537 82.7294,108.537 82.7294,108.537 C162.323,108.537 227.445,173.659 227.445,253.253 C227.445,332.846 162.323,397.968 82.7294,397.968 C82.7294,397.968 -192.513,397.968 -373.834,397.968 C-555.154,397.968 -573.735,687.4 -373.834,687.4 C-173.933,687.4 82.7294,687.4 82.7294,687.4 C322.958,687.4 516.877,493.481 516.877,253.253 Z M-369.881,-759.758 C-451.115,-759.758 -516.877,-693.996 -516.877,-612.762 C-516.877,-531.527 -451.115,-465.766 -369.881,-465.766 C-288.646,-465.766 -222.885,-531.527 -222.885,-612.762 C-222.885,-693.996 -288.646,-759.758 -369.881,-759.758 Z " fill="#7C3AED" />		</g>	</svg>


